<mxfile host="Electron" agent="Mozilla/5.0 (Windows NT 10.0; Win64; x64) AppleWebKit/537.36 (KHTML, like Gecko) draw.io/27.0.9 Chrome/134.0.6998.205 Electron/35.4.0 Safari/537.36" version="27.0.9">
  <diagram name="Page-1" id="AvUo_ZpV32-Pxw3wnyTE">
    <mxGraphModel dx="815" dy="481" grid="1" gridSize="8" guides="1" tooltips="1" connect="1" arrows="1" fold="1" page="1" pageScale="1" pageWidth="850" pageHeight="1100" math="0" shadow="0">
      <root>
        <mxCell id="0" />
        <mxCell id="1" parent="0" />
        <mxCell id="GMeBZ4G_m04d1dBUhYj2-1" value="High Level Architecture" style="text;html=1;align=center;verticalAlign=middle;resizable=0;points=[];autosize=1;strokeColor=none;fillColor=none;" vertex="1" parent="1">
          <mxGeometry x="44" y="53" width="144" height="32" as="geometry" />
        </mxCell>
        <mxCell id="GMeBZ4G_m04d1dBUhYj2-2" value="" style="rounded=0;whiteSpace=wrap;html=1;fillColor=none;" vertex="1" parent="1">
          <mxGeometry x="64" y="128" width="96" height="352" as="geometry" />
        </mxCell>
        <mxCell id="GMeBZ4G_m04d1dBUhYj2-3" value="Sources" style="rounded=0;whiteSpace=wrap;html=1;fillColor=none;strokeColor=none;" vertex="1" parent="1">
          <mxGeometry x="81" y="109" width="60" height="19" as="geometry" />
        </mxCell>
        <mxCell id="GMeBZ4G_m04d1dBUhYj2-4" value="" style="rounded=0;whiteSpace=wrap;html=1;fillColor=none;" vertex="1" parent="1">
          <mxGeometry x="224" y="128" width="416" height="352" as="geometry" />
        </mxCell>
        <mxCell id="GMeBZ4G_m04d1dBUhYj2-5" value="Data Warehouse" style="rounded=0;whiteSpace=wrap;html=1;fillColor=none;strokeColor=none;" vertex="1" parent="1">
          <mxGeometry x="384" y="109" width="128" height="19" as="geometry" />
        </mxCell>
        <mxCell id="GMeBZ4G_m04d1dBUhYj2-6" value="" style="rounded=0;whiteSpace=wrap;html=1;fillColor=none;" vertex="1" parent="1">
          <mxGeometry x="704" y="128" width="96" height="352" as="geometry" />
        </mxCell>
        <mxCell id="GMeBZ4G_m04d1dBUhYj2-7" value="Consumers" style="rounded=0;whiteSpace=wrap;html=1;fillColor=none;strokeColor=none;" vertex="1" parent="1">
          <mxGeometry x="722" y="109" width="60" height="19" as="geometry" />
        </mxCell>
        <mxCell id="GMeBZ4G_m04d1dBUhYj2-9" value="Bronze Layer" style="rounded=0;whiteSpace=wrap;html=1;fillColor=#fad7ac;strokeColor=#b46504;" vertex="1" parent="1">
          <mxGeometry x="237" y="144" width="120" height="16" as="geometry" />
        </mxCell>
        <mxCell id="GMeBZ4G_m04d1dBUhYj2-10" value="" style="rounded=0;whiteSpace=wrap;html=1;fillColor=none;" vertex="1" parent="1">
          <mxGeometry x="237" y="168" width="120" height="296" as="geometry" />
        </mxCell>
        <mxCell id="GMeBZ4G_m04d1dBUhYj2-11" value="Silver Layer" style="rounded=0;whiteSpace=wrap;html=1;fillColor=#bac8d3;strokeColor=#23445d;" vertex="1" parent="1">
          <mxGeometry x="372" y="144" width="120" height="16" as="geometry" />
        </mxCell>
        <mxCell id="GMeBZ4G_m04d1dBUhYj2-12" value="" style="rounded=0;whiteSpace=wrap;html=1;fillColor=none;" vertex="1" parent="1">
          <mxGeometry x="372" y="168" width="120" height="296" as="geometry" />
        </mxCell>
        <mxCell id="GMeBZ4G_m04d1dBUhYj2-13" value="Gold Layer" style="rounded=0;whiteSpace=wrap;html=1;fillColor=#fff2cc;strokeColor=#d6b656;gradientColor=#ffd966;" vertex="1" parent="1">
          <mxGeometry x="507" y="144" width="120" height="16" as="geometry" />
        </mxCell>
        <mxCell id="GMeBZ4G_m04d1dBUhYj2-14" value="" style="rounded=0;whiteSpace=wrap;html=1;fillColor=none;" vertex="1" parent="1">
          <mxGeometry x="507" y="168" width="120" height="296" as="geometry" />
        </mxCell>
        <mxCell id="GMeBZ4G_m04d1dBUhYj2-15" value="" style="image;aspect=fixed;html=1;points=[];align=center;fontSize=12;image=img/lib/azure2/general/Folder_Blank.svg;" vertex="1" parent="1">
          <mxGeometry x="92.28" y="160" width="39.43" height="32" as="geometry" />
        </mxCell>
        <mxCell id="GMeBZ4G_m04d1dBUhYj2-16" value="" style="image;aspect=fixed;html=1;points=[];align=center;fontSize=12;image=img/lib/azure2/general/File.svg;" vertex="1" parent="1">
          <mxGeometry x="116.04" y="176" width="19.48" height="24" as="geometry" />
        </mxCell>
        <mxCell id="GMeBZ4G_m04d1dBUhYj2-17" value="" style="image;aspect=fixed;html=1;points=[];align=center;fontSize=12;image=img/lib/azure2/general/Folder_Blank.svg;" vertex="1" parent="1">
          <mxGeometry x="92.28" y="232" width="39.43" height="32" as="geometry" />
        </mxCell>
        <mxCell id="GMeBZ4G_m04d1dBUhYj2-18" value="" style="image;aspect=fixed;html=1;points=[];align=center;fontSize=12;image=img/lib/azure2/general/File.svg;" vertex="1" parent="1">
          <mxGeometry x="116.03999999999999" y="248" width="19.48" height="24" as="geometry" />
        </mxCell>
        <mxCell id="GMeBZ4G_m04d1dBUhYj2-19" value="CRM" style="text;html=1;align=center;verticalAlign=middle;whiteSpace=wrap;rounded=0;" vertex="1" parent="1">
          <mxGeometry x="82" y="200" width="60" height="16" as="geometry" />
        </mxCell>
        <mxCell id="GMeBZ4G_m04d1dBUhYj2-20" value="ERP" style="text;html=1;align=center;verticalAlign=middle;whiteSpace=wrap;rounded=0;" vertex="1" parent="1">
          <mxGeometry x="82" y="272" width="60" height="16" as="geometry" />
        </mxCell>
        <mxCell id="GMeBZ4G_m04d1dBUhYj2-21" value="" style="endArrow=none;html=1;rounded=0;entryX=0.167;entryY=0.727;entryDx=0;entryDy=0;entryPerimeter=0;" edge="1" parent="1">
          <mxGeometry width="50" height="50" relative="1" as="geometry">
            <mxPoint x="147.59" y="384" as="sourcePoint" />
            <mxPoint x="75.03200000000004" y="383.9039999999999" as="targetPoint" />
          </mxGeometry>
        </mxCell>
        <mxCell id="GMeBZ4G_m04d1dBUhYj2-22" value="&lt;font style=&quot;font-size: 8px;&quot;&gt;&lt;b&gt;Object Type:&lt;/b&gt; CSV Files&lt;/font&gt;&lt;div&gt;&lt;font style=&quot;font-size: 8px;&quot;&gt;&lt;b&gt;Interface:&lt;/b&gt; Files In Folder&lt;/font&gt;&lt;/div&gt;" style="text;html=1;align=center;verticalAlign=middle;whiteSpace=wrap;rounded=0;" vertex="1" parent="1">
          <mxGeometry x="64" y="392" width="96" height="40" as="geometry" />
        </mxCell>
        <mxCell id="GMeBZ4G_m04d1dBUhYj2-23" value="" style="html=1;verticalLabelPosition=bottom;align=center;labelBackgroundColor=#ffffff;verticalAlign=top;strokeWidth=2;strokeColor=#b46504;shadow=0;dashed=0;shape=mxgraph.ios7.icons.data;fillColor=#fad7ac;" vertex="1" parent="1">
          <mxGeometry x="278.5" y="212.95000000000002" width="37" height="46.1" as="geometry" />
        </mxCell>
        <mxCell id="GMeBZ4G_m04d1dBUhYj2-26" value="" style="html=1;verticalLabelPosition=bottom;align=center;labelBackgroundColor=#ffffff;verticalAlign=top;strokeWidth=2;strokeColor=#23445d;shadow=0;dashed=0;shape=mxgraph.ios7.icons.data;fillColor=#bac8d3;" vertex="1" parent="1">
          <mxGeometry x="413.5" y="212.95" width="37" height="46.1" as="geometry" />
        </mxCell>
        <mxCell id="GMeBZ4G_m04d1dBUhYj2-27" value="" style="html=1;verticalLabelPosition=bottom;align=center;labelBackgroundColor=#ffffff;verticalAlign=top;strokeWidth=2;strokeColor=#d6b656;shadow=0;dashed=0;shape=mxgraph.ios7.icons.data;fillColor=#fff2cc;gradientColor=#ffd966;" vertex="1" parent="1">
          <mxGeometry x="548.5" y="212.95" width="37" height="46.1" as="geometry" />
        </mxCell>
        <mxCell id="GMeBZ4G_m04d1dBUhYj2-28" value="" style="shape=flexArrow;endArrow=classic;html=1;rounded=0;entryX=0.225;entryY=0.243;entryDx=0;entryDy=0;entryPerimeter=0;exitX=0.917;exitY=0.348;exitDx=0;exitDy=0;exitPerimeter=0;fillColor=#dae8fc;gradientColor=#7ea6e0;strokeColor=#6c8ebf;" edge="1" parent="1" target="GMeBZ4G_m04d1dBUhYj2-10">
          <mxGeometry width="50" height="50" relative="1" as="geometry">
            <mxPoint x="152.03200000000004" y="239.99599999999998" as="sourcePoint" />
            <mxPoint x="221.08799999999997" y="239.99599999999998" as="targetPoint" />
          </mxGeometry>
        </mxCell>
        <mxCell id="GMeBZ4G_m04d1dBUhYj2-29" value="" style="shape=flexArrow;endArrow=classic;html=1;rounded=0;exitX=0.917;exitY=0.348;exitDx=0;exitDy=0;exitPerimeter=0;fillColor=#dae8fc;gradientColor=#7ea6e0;strokeColor=#6c8ebf;" edge="1" parent="1">
          <mxGeometry width="50" height="50" relative="1" as="geometry">
            <mxPoint x="329" y="240" as="sourcePoint" />
            <mxPoint x="400" y="240" as="targetPoint" />
          </mxGeometry>
        </mxCell>
        <mxCell id="GMeBZ4G_m04d1dBUhYj2-30" value="" style="shape=flexArrow;endArrow=classic;html=1;rounded=0;exitX=0.917;exitY=0.348;exitDx=0;exitDy=0;exitPerimeter=0;fillColor=#dae8fc;gradientColor=#7ea6e0;strokeColor=#6c8ebf;" edge="1" parent="1">
          <mxGeometry width="50" height="50" relative="1" as="geometry">
            <mxPoint x="464" y="240" as="sourcePoint" />
            <mxPoint x="535" y="240" as="targetPoint" />
          </mxGeometry>
        </mxCell>
        <mxCell id="GMeBZ4G_m04d1dBUhYj2-31" value="" style="shape=flexArrow;endArrow=classic;html=1;rounded=0;entryX=0.225;entryY=0.243;entryDx=0;entryDy=0;entryPerimeter=0;exitX=0.917;exitY=0.348;exitDx=0;exitDy=0;exitPerimeter=0;fillColor=#dae8fc;gradientColor=#7ea6e0;strokeColor=#6c8ebf;" edge="1" parent="1">
          <mxGeometry width="50" height="50" relative="1" as="geometry">
            <mxPoint x="600" y="240" as="sourcePoint" />
            <mxPoint x="711.968" y="240.00400000000002" as="targetPoint" />
          </mxGeometry>
        </mxCell>
        <mxCell id="GMeBZ4G_m04d1dBUhYj2-32" value="Raw Data" style="text;html=1;align=center;verticalAlign=middle;whiteSpace=wrap;rounded=0;fontSize=9;" vertex="1" parent="1">
          <mxGeometry x="266" y="263" width="60" height="20.05" as="geometry" />
        </mxCell>
        <mxCell id="GMeBZ4G_m04d1dBUhYj2-33" value="Cleaned, Standardized Data" style="text;html=1;align=center;verticalAlign=middle;whiteSpace=wrap;rounded=0;fontSize=9;" vertex="1" parent="1">
          <mxGeometry x="384" y="263" width="96" height="20.05" as="geometry" />
        </mxCell>
        <mxCell id="GMeBZ4G_m04d1dBUhYj2-34" value="Business-Ready Data" style="text;html=1;align=center;verticalAlign=middle;whiteSpace=wrap;rounded=0;fontSize=9;" vertex="1" parent="1">
          <mxGeometry x="520" y="263" width="96" height="20.05" as="geometry" />
        </mxCell>
        <mxCell id="GMeBZ4G_m04d1dBUhYj2-36" value="" style="endArrow=none;html=1;rounded=0;entryX=0.167;entryY=0.727;entryDx=0;entryDy=0;entryPerimeter=0;" edge="1" parent="1">
          <mxGeometry width="50" height="50" relative="1" as="geometry">
            <mxPoint x="333.278" y="296.0960000000001" as="sourcePoint" />
            <mxPoint x="260.72" y="296" as="targetPoint" />
          </mxGeometry>
        </mxCell>
        <mxCell id="GMeBZ4G_m04d1dBUhYj2-37" value="" style="endArrow=none;html=1;rounded=0;entryX=0.167;entryY=0.727;entryDx=0;entryDy=0;entryPerimeter=0;" edge="1" parent="1">
          <mxGeometry width="50" height="50" relative="1" as="geometry">
            <mxPoint x="468.278" y="296.0960000000001" as="sourcePoint" />
            <mxPoint x="395.72" y="296" as="targetPoint" />
          </mxGeometry>
        </mxCell>
        <mxCell id="GMeBZ4G_m04d1dBUhYj2-38" value="" style="endArrow=none;html=1;rounded=0;entryX=0.167;entryY=0.727;entryDx=0;entryDy=0;entryPerimeter=0;" edge="1" parent="1">
          <mxGeometry width="50" height="50" relative="1" as="geometry">
            <mxPoint x="604.278" y="296.0960000000001" as="sourcePoint" />
            <mxPoint x="531.72" y="296" as="targetPoint" />
          </mxGeometry>
        </mxCell>
        <mxCell id="GMeBZ4G_m04d1dBUhYj2-39" value="&lt;div style=&quot;&quot;&gt;&lt;b style=&quot;font-size: 8px; background-color: transparent; color: light-dark(rgb(0, 0, 0), rgb(255, 255, 255));&quot;&gt;Object Type:&lt;/b&gt;&lt;span style=&quot;font-size: 8px; background-color: transparent; color: light-dark(rgb(0, 0, 0), rgb(255, 255, 255));&quot;&gt; Tables&lt;/span&gt;&lt;/div&gt;&lt;div&gt;&lt;div style=&quot;text-align: left;&quot;&gt;&lt;span style=&quot;background-color: transparent; color: light-dark(rgb(0, 0, 0), rgb(255, 255, 255));&quot;&gt;&lt;b style=&quot;font-size: 8px;&quot;&gt;Load:&lt;br&gt;&lt;/b&gt;&lt;div style=&quot;font-size: 8px; text-align: left;&quot;&gt;&lt;font style=&quot;font-weight: normal; background-color: transparent; color: light-dark(rgb(0, 0, 0), rgb(255, 255, 255)); text-align: center;&quot;&gt;- Batch Processing&lt;br&gt;&lt;/font&gt;&lt;font style=&quot;font-weight: normal; background-color: transparent; color: light-dark(rgb(0, 0, 0), rgb(255, 255, 255)); text-align: center;&quot;&gt;- Full Load&lt;br&gt;- Trunc &amp;amp; Insert&lt;/font&gt;&lt;/div&gt;&lt;/span&gt;&lt;/div&gt;&lt;div&gt;&lt;div&gt;&lt;span style=&quot;font-size: 8px;&quot;&gt;No &lt;b&gt;Transformations&lt;/b&gt;&lt;/span&gt;&lt;/div&gt;&lt;/div&gt;&lt;/div&gt;&lt;div&gt;&lt;span style=&quot;font-size: 8px;&quot;&gt;&lt;b&gt;Data Model: &lt;/b&gt;None&lt;/span&gt;&lt;/div&gt;" style="text;html=1;align=center;verticalAlign=top;whiteSpace=wrap;rounded=0;spacing=1;" vertex="1" parent="1">
          <mxGeometry x="241" y="296" width="112" height="168" as="geometry" />
        </mxCell>
        <mxCell id="GMeBZ4G_m04d1dBUhYj2-42" value="&lt;div style=&quot;&quot;&gt;&lt;b style=&quot;font-size: 8px; background-color: transparent; color: light-dark(rgb(0, 0, 0), rgb(255, 255, 255));&quot;&gt;Object Type:&lt;/b&gt;&lt;span style=&quot;font-size: 8px; background-color: transparent; color: light-dark(rgb(0, 0, 0), rgb(255, 255, 255));&quot;&gt; Tables&lt;/span&gt;&lt;/div&gt;&lt;div&gt;&lt;div style=&quot;text-align: left;&quot;&gt;&lt;span style=&quot;background-color: transparent; color: light-dark(rgb(0, 0, 0), rgb(255, 255, 255)); font-size: 8px;&quot;&gt;&lt;b&gt;Load:&lt;br&gt;&lt;/b&gt;&lt;div style=&quot;text-align: left;&quot;&gt;&lt;span style=&quot;background-color: transparent; color: light-dark(rgb(0, 0, 0), rgb(255, 255, 255)); text-align: center;&quot;&gt;-&lt;b&gt;&amp;nbsp;&lt;/b&gt;&lt;/span&gt;&lt;span style=&quot;font-weight: normal; background-color: transparent; color: light-dark(rgb(0, 0, 0), rgb(255, 255, 255)); text-align: center;&quot;&gt;Batch Processing&lt;br&gt;&lt;/span&gt;&lt;span style=&quot;background-color: transparent; color: light-dark(rgb(0, 0, 0), rgb(255, 255, 255)); text-align: center;&quot;&gt;- Full Load&lt;br&gt;&lt;/span&gt;&lt;span style=&quot;background-color: transparent; color: light-dark(rgb(0, 0, 0), rgb(255, 255, 255)); text-align: center;&quot;&gt;- Trunc &amp;amp; Insert&lt;/span&gt;&lt;/div&gt;&lt;/span&gt;&lt;/div&gt;&lt;div style=&quot;text-align: left;&quot;&gt;&lt;span style=&quot;background-color: transparent; color: light-dark(rgb(0, 0, 0), rgb(255, 255, 255)); font-size: 8px; text-align: center;&quot;&gt;&lt;b&gt;Transformations:&lt;br&gt;&lt;/b&gt;- Data Cleansing&lt;br&gt;- Data Standardization&lt;br&gt;- Data Normalization&lt;br&gt;- Derived Columns&lt;br&gt;- Data Enrichment&lt;/span&gt;&lt;/div&gt;&lt;/div&gt;&lt;div&gt;&lt;span style=&quot;font-size: 8px;&quot;&gt;&lt;b&gt;Data Model: &lt;/b&gt;None&lt;/span&gt;&lt;/div&gt;" style="text;html=1;align=center;verticalAlign=top;whiteSpace=wrap;rounded=0;" vertex="1" parent="1">
          <mxGeometry x="376" y="296" width="112" height="168" as="geometry" />
        </mxCell>
        <mxCell id="GMeBZ4G_m04d1dBUhYj2-43" value="&lt;div style=&quot;&quot;&gt;&lt;b style=&quot;font-size: 8px; background-color: transparent; color: light-dark(rgb(0, 0, 0), rgb(255, 255, 255));&quot;&gt;Object Type:&lt;/b&gt;&lt;span style=&quot;font-size: 8px; background-color: transparent; color: light-dark(rgb(0, 0, 0), rgb(255, 255, 255));&quot;&gt; Views&lt;/span&gt;&lt;/div&gt;&lt;div&gt;&lt;div style=&quot;text-align: left;&quot;&gt;&lt;span style=&quot;background-color: transparent; color: light-dark(rgb(0, 0, 0), rgb(255, 255, 255)); font-size: 8px;&quot;&gt;No&lt;/span&gt;&lt;b style=&quot;background-color: transparent; color: light-dark(rgb(0, 0, 0), rgb(255, 255, 255)); font-size: 8px;&quot;&gt; Load&lt;/b&gt;&lt;/div&gt;&lt;div&gt;&lt;div&gt;&lt;span style=&quot;font-size: 8px;&quot;&gt;&lt;b&gt;Transformations:&lt;/b&gt;&lt;br&gt;- Data Integration&lt;br&gt;- Aggregations&lt;br&gt;- Business Logics&lt;/span&gt;&lt;/div&gt;&lt;/div&gt;&lt;/div&gt;&lt;div&gt;&lt;span style=&quot;font-size: 8px;&quot;&gt;&lt;b&gt;Data Model:&lt;/b&gt;&lt;br&gt;- Star Schema&lt;br&gt;- Flat Table&lt;br&gt;- Aggregated Table&lt;/span&gt;&lt;/div&gt;" style="text;html=1;align=center;verticalAlign=top;whiteSpace=wrap;rounded=0;" vertex="1" parent="1">
          <mxGeometry x="511" y="296" width="112" height="168" as="geometry" />
        </mxCell>
        <mxCell id="GMeBZ4G_m04d1dBUhYj2-44" value="" style="image;aspect=fixed;html=1;points=[];align=center;fontSize=12;image=img/lib/azure2/analytics/Power_BI_Embedded.svg;" vertex="1" parent="1">
          <mxGeometry x="731" y="160" width="42" height="56" as="geometry" />
        </mxCell>
        <mxCell id="GMeBZ4G_m04d1dBUhYj2-45" value="" style="shadow=0;dashed=0;html=1;strokeColor=none;fillColor=#4495D1;labelPosition=center;verticalLabelPosition=bottom;verticalAlign=top;align=center;outlineConnect=0;shape=mxgraph.veeam.magnifying_glass;pointerEvents=1;" vertex="1" parent="1">
          <mxGeometry x="726.8" y="263" width="55.2" height="54.4" as="geometry" />
        </mxCell>
        <mxCell id="GMeBZ4G_m04d1dBUhYj2-46" value="" style="outlineConnect=0;dashed=0;verticalLabelPosition=bottom;verticalAlign=top;align=center;html=1;shape=mxgraph.aws3.machine_learning;fillColor=#2E73B8;gradientColor=none;" vertex="1" parent="1">
          <mxGeometry x="724.4" y="352" width="54.25" height="58.5" as="geometry" />
        </mxCell>
        <mxCell id="GMeBZ4G_m04d1dBUhYj2-47" value="&lt;font style=&quot;font-size: 8px;&quot;&gt;BI &amp;amp; Reporting&lt;/font&gt;" style="text;html=1;align=center;verticalAlign=middle;whiteSpace=wrap;rounded=0;" vertex="1" parent="1">
          <mxGeometry x="721.53" y="218" width="60" height="22" as="geometry" />
        </mxCell>
        <mxCell id="GMeBZ4G_m04d1dBUhYj2-48" value="&lt;font style=&quot;font-size: 8px;&quot;&gt;Ad-Hoc SQL Queries&lt;/font&gt;" style="text;html=1;align=center;verticalAlign=middle;whiteSpace=wrap;rounded=0;" vertex="1" parent="1">
          <mxGeometry x="711.53" y="317.4" width="80" height="26.6" as="geometry" />
        </mxCell>
        <mxCell id="GMeBZ4G_m04d1dBUhYj2-49" value="&lt;font style=&quot;font-size: 8px;&quot;&gt;Machine Learning&lt;/font&gt;" style="text;html=1;align=center;verticalAlign=middle;whiteSpace=wrap;rounded=0;" vertex="1" parent="1">
          <mxGeometry x="711.53" y="410.5" width="80" height="26.6" as="geometry" />
        </mxCell>
        <mxCell id="GMeBZ4G_m04d1dBUhYj2-50" value="" style="image;sketch=0;aspect=fixed;html=1;points=[];align=center;fontSize=12;image=img/lib/mscae/SQL_Servers.svg;" vertex="1" parent="1">
          <mxGeometry x="225" y="95" width="30.5" height="30.5" as="geometry" />
        </mxCell>
      </root>
    </mxGraphModel>
  </diagram>
</mxfile>
